<svg width="640" height="420" viewBox="0 0 640 420" fill="none" xmlns="http://www.w3.org/2000/svg">
  <defs>
    <linearGradient id="paint0" x1="70" y1="60" x2="610" y2="380" gradientUnits="userSpaceOnUse">
      <stop stop-color="#0F766E"/>
      <stop offset="1" stop-color="#F59E0B"/>
    </linearGradient>
    <linearGradient id="paint1" x1="0" y1="0" x2="640" y2="420" gradientUnits="userSpaceOnUse">
      <stop stop-color="#FFF7ED"/>
      <stop offset="1" stop-color="#E7F4F1"/>
    </linearGradient>
  </defs>
  <rect width="640" height="420" rx="36" fill="url(#paint1)"/>
  <path d="M110 270C142 210 226 170 320 170C414 170 498 210 530 270" stroke="url(#paint0)" stroke-width="18" stroke-linecap="round"/>
  <path d="M170 260H470" stroke="#1F2937" stroke-width="18" stroke-linecap="round"/>
  <path d="M200 230C214 200 266 184 320 184C374 184 426 200 440 230" stroke="#1F2937" stroke-width="18" stroke-linecap="round"/>
  <rect x="142" y="242" width="356" height="64" rx="26" fill="#FFFFFF" stroke="#1F2937" stroke-width="12"/>
  <circle cx="210" cy="322" r="34" fill="#1F2937"/>
  <circle cx="210" cy="322" r="18" fill="#F59E0B"/>
  <circle cx="430" cy="322" r="34" fill="#1F2937"/>
  <circle cx="430" cy="322" r="18" fill="#0F766E"/>
  <path d="M258 260H382" stroke="#0F766E" stroke-width="8" stroke-linecap="round"/>
</svg>
